<svg width="20" height="20" viewBox="0 0 20 20" fill="none" xmlns="http://www.w3.org/2000/svg">
<g clip-path="url(#clip0_6011_1100)">
<path d="M18.2122 3.6802C18.3319 3.32086 18.2384 2.92469 17.9706 2.65686C17.7027 2.38903 17.3066 2.29551 16.9472 2.41529L2.09801 7.36503C1.72179 7.49044 1.45522 7.82631 1.41852 8.22117C1.38183 8.61604 1.58193 8.99528 1.92859 9.18787L6.47427 11.7132C6.86456 11.9301 7.35131 11.8619 7.66702 11.5462L10.8995 8.31371C11.29 7.92318 11.9232 7.92318 12.3137 8.31371C12.7042 8.70423 12.7042 9.3374 12.3137 9.72792L9.08123 12.9604C8.76552 13.2761 8.69735 13.7629 8.91418 14.1532L11.4396 18.6989C11.6322 19.0455 12.0114 19.2456 12.4063 19.2089C12.8011 19.1722 13.137 18.9057 13.2624 18.5294L18.2122 3.6802Z" fill="#404040"/>
</g>
<defs>
<clipPath id="clip0_6011_1100">
<rect width="20" height="20" fill="white"/>
</clipPath>
</defs>
</svg>
